<?xml version="1.0" encoding="utf-8"?>
<!-- Generator: Adobe Illustrator 23.0.1, SVG Export Plug-In . SVG Version: 6.00 Build 0)  -->
<svg version="1.1" id="Layer_1" xmlns="http://www.w3.org/2000/svg" xmlns:xlink="http://www.w3.org/1999/xlink" x="0px" y="0px"
	 viewBox="0 0 1000 428.3" style="enable-background:new 0 0 1000 428.3;" xml:space="preserve">
<style type="text/css">
	.st0{fill:#010101;}
</style>
<polygon points="80.1,211.7 80.1,351.2 202.2,351.2 "/>
<path d="M80.1,156.6l169.2,194.7c0,0,92.8,24.5,89.5-79.6l-164-196.1C174.9,75.5,73.5,46.8,80.1,156.6z"/>
<polygon points="339,72.1 213,72.1 339,214.6 "/>
<g>
	<path class="st0" d="M396.9,174.1c0.4,4.8,1.6,8.5,3.6,11c3.6,4.6,9.9,7,18.9,7c5.3,0,10-1.2,14.1-3.5c4-2.3,6.1-5.9,6.1-10.8
		c0-3.7-1.6-6.5-4.9-8.4c-2.1-1.2-6.2-2.5-12.3-4.1l-11.4-2.9c-7.3-1.8-12.7-3.8-16.2-6.1c-6.2-3.9-9.3-9.3-9.3-16.2
		c0-8.1,2.9-14.7,8.8-19.7s13.7-7.5,23.6-7.5c12.9,0,22.2,3.8,27.9,11.4c3.6,4.8,5.3,10,5.2,15.5h-13.6c-0.3-3.3-1.4-6.2-3.4-8.9
		c-3.3-3.8-9-5.7-17.2-5.7c-5.4,0-9.6,1-12.4,3.1s-4.2,4.8-4.2,8.2c0,3.7,1.8,6.7,5.5,9c2.1,1.3,5.3,2.5,9.4,3.5l9.5,2.3
		c10.4,2.5,17.3,4.9,20.8,7.3c5.6,3.7,8.4,9.5,8.4,17.4c0,7.6-2.9,14.2-8.7,19.8c-5.8,5.6-14.6,8.3-26.4,8.3
		c-12.8,0-21.8-2.9-27.1-8.7s-8.1-12.9-8.5-21.5L396.9,174.1L396.9,174.1z"/>
	<path class="st0" d="M473.1,91.4h14.6v23.9h13.7v11.8h-13.7V183c0,3,1,5,3,6c1.1,0.6,3,0.9,5.6,0.9c0.7,0,1.4,0,2.2,0
		s1.7-0.1,2.8-0.2V201c-1.7,0.5-3.4,0.8-5.2,1c-1.8,0.2-3.7,0.3-5.8,0.3c-6.7,0-11.3-1.7-13.7-5.2c-2.4-3.4-3.6-7.9-3.6-13.4v-56.7
		h-11.6v-11.8h11.6V91.4z"/>
	<path class="st0" d="M515.8,83.5h14.6v16.3h-14.6V83.5z M515.8,115.7h14.6V201h-14.6V115.7z"/>
	<path class="st0" d="M608.8,119.9c6,4.7,9.7,12.8,10.9,24.2h-14c-0.8-5.3-2.8-9.7-5.8-13.2c-3-3.5-7.9-5.2-14.6-5.2
		c-9.2,0-15.7,4.5-19.7,13.4c-2.6,5.8-3.8,13-3.8,21.5c0,8.6,1.8,15.8,5.4,21.7c3.6,5.9,9.3,8.8,17.1,8.8c6,0,10.7-1.8,14.2-5.5
		s5.9-8.6,7.2-15h14c-1.6,11.4-5.6,19.7-12,24.9s-14.6,7.9-24.6,7.9c-11.2,0-20.1-4.1-26.8-12.3s-10-18.4-10-30.7
		c0-15,3.7-26.8,11-35.1s16.6-12.6,27.9-12.6C594.9,112.8,602.7,115.2,608.8,119.9z"/>
	<path class="st0" d="M633.8,83.5h13.8v68.2l37-36.4H703l-32.8,32.1l34.6,53.6h-18.4l-26.7-43.2l-12.1,11V201h-13.8L633.8,83.5
		L633.8,83.5z"/>
	<path class="st0" d="M769.4,117.7c5.7,2.8,10,6.6,13,11.1c2.9,4.3,4.8,9.4,5.8,15.1c0.8,3.9,1.3,10.2,1.3,18.9h-62.8
		c0.3,8.7,2.3,15.7,6.2,20.9c3.8,5.3,9.8,7.9,17.8,7.9c7.5,0,13.5-2.5,18-7.4c2.6-2.9,4.4-6.2,5.4-10h14.2
		c-0.4,3.1-1.6,6.6-3.7,10.5c-2.1,3.9-4.5,7-7.1,9.5c-4.4,4.3-9.8,7.1-16.2,8.6c-3.5,0.9-7.4,1.3-11.8,1.3
		c-10.7,0-19.7-3.9-27.1-11.6s-11.1-18.6-11.1-32.6c0-13.8,3.7-24.9,11.2-33.5c7.5-8.6,17.2-12.9,29.3-12.9
		C757.8,113.4,763.7,114.8,769.4,117.7z M774.6,151.3c-0.6-6.2-2-11.2-4.1-15c-4-6.9-10.5-10.4-19.8-10.4c-6.6,0-12.2,2.4-16.6,7.2
		c-4.5,4.8-6.8,10.8-7.1,18.2L774.6,151.3L774.6,151.3z"/>
	<path class="st0" d="M807.5,115.3h13.7v14.8c1.1-2.9,3.9-6.4,8.2-10.5c4.4-4.1,9.4-6.2,15.1-6.2c0.3,0,0.7,0,1.4,0.1
		s1.7,0.2,3.3,0.3V129c-0.8-0.2-1.6-0.3-2.4-0.3s-1.5-0.1-2.4-0.1c-7.3,0-12.8,2.3-16.7,7c-3.9,4.7-5.8,10-5.8,16.1V201h-14.4V115.3
		z"/>
	<path class="st0" d="M870.2,174.1c0.4,4.8,1.6,8.5,3.6,11c3.6,4.6,9.9,7,18.9,7c5.3,0,10-1.2,14.1-3.5c4-2.3,6.1-5.9,6.1-10.8
		c0-3.7-1.6-6.5-4.9-8.4c-2.1-1.2-6.2-2.5-12.3-4.1l-11.4-2.9c-7.3-1.8-12.7-3.8-16.2-6.1c-6.2-3.9-9.3-9.3-9.3-16.2
		c0-8.1,2.9-14.7,8.8-19.7s13.7-7.5,23.6-7.5c12.9,0,22.2,3.8,27.9,11.4c3.6,4.8,5.3,10,5.2,15.5h-13.6c-0.3-3.3-1.4-6.2-3.4-8.9
		c-3.3-3.8-9-5.7-17.2-5.7c-5.4,0-9.6,1-12.4,3.1s-4.2,4.8-4.2,8.2c0,3.7,1.8,6.7,5.5,9c2.1,1.3,5.3,2.5,9.4,3.5l9.5,2.3
		c10.3,2.5,17.3,4.9,20.8,7.3c5.6,3.7,8.4,9.5,8.4,17.4c0,7.6-2.9,14.2-8.7,19.8c-5.8,5.6-14.6,8.3-26.4,8.3
		c-12.8,0-21.8-2.9-27.1-8.7s-8.2-12.9-8.5-21.5L870.2,174.1L870.2,174.1z"/>
	<path class="st0" d="M389.9,226.9h25.8l46.8,82.2v-82.2h23v117.9h-24.6l-48-83.7v83.7h-23L389.9,226.9L389.9,226.9z"/>
	<path class="st0" d="M595.8,247.8h-62.4v25h57.3v20.5h-57.3v30.3h65.3v21.2h-89.4V226.9h86.5V247.8z"/>
	<path class="st0" d="M697,293.8c-6.9,5.8-16.8,8.6-29.6,8.6h-24.5v42.4h-24.5V226.9H669c11.7,0,21,3,27.9,9.1s10.4,15.5,10.4,28.2
		C707.4,278.2,703.9,288,697,293.8z M678.2,251.3c-3.1-2.6-7.5-3.9-13.1-3.9h-22.2v34.7h22.2c5.6,0,10-1.4,13.1-4.2
		c3.1-2.8,4.7-7.3,4.7-13.4C682.9,258.3,681.3,253.9,678.2,251.3z"/>
	<path class="st0" d="M748.8,226.9h27.9l41.7,117.9h-26.7l-7.8-24.2h-43.4l-8,24.2h-25.8L748.8,226.9z M747.1,300.3h30.2l-14.9-46.4
		L747.1,300.3z"/>
	<path class="st0" d="M833.4,226.9H858v96.7h58.9v21.2h-83.5V226.9z"/>
</g>
</svg>
